<?xml version="1.0" encoding="utf-8"?>
<!-- Generator: Adobe Illustrator 18.1.0, SVG Export Plug-In . SVG Version: 6.00 Build 0)  -->
<svg version="1.1" id="Layer_1" xmlns:sketch="http://www.bohemiancoding.com/sketch/ns"
	 xmlns="http://www.w3.org/2000/svg" xmlns:xlink="http://www.w3.org/1999/xlink" x="0px" y="0px" viewBox="-300 468 680 696"
	 enable-background="new -300 468 680 696" xml:space="preserve">
<title>LOGO</title>
<desc>Created with Sketch Beta.</desc>
<g id="L3D-_x2B_-LOGO" transform="translate(0.000000, -4.000000)" sketch:type="MSLayerGroup">
	<g id="LOGO">
		<path id="Fill-2" fill="#239BCE" d="M16.4,1058.3c0-63.9,0.9-135.6,0.9-199.6c0-13.8-2.6-31.1,16.4-31.1c19.9,0,16.4,18.1,16.4,32
			c0,63.9,0,127,0,190.9c-11.2,3.5-23.3,2.6-34.6,0"/>
		<path id="Fill-3" fill="#DE2774" d="M266.1,707.5c-55.3,25.9-111.5,51.8-166.8,77.8c-13,6-27.6,17.3-37.2-2.6
			c-7.8-17.3,8.6-22.5,20.7-27.6c56.2-27.6,112.3-54.4,168.5-82.1C266.1,679.9,268.7,692,266.1,707.5"/>
		<path id="Fill-1" fill="#F9F9F9" d="M273,605.6c-51.8-26.8-102.8-53.6-154.7-79.5C68.3,501,18.2,501-31.9,526.1
			c-51,25.1-102,51.8-152.9,76.9c-45.8,23.3-66.5,62.2-66.5,114c0,67.4,0.9,134.8,0,202.2c0,53.6,20.7,92.4,68.3,115.8
			c50.1,25.1,100.2,51,150.3,76c42.3,21.6,87.3,25.9,130.5,7.8c64.8-26.8,127-59.6,187.5-95c32.8-19,49.2-50.1,51-88.1
			c0.9-38.9,0-77.8,0-116.6c0-37.2,0.9-73.4,0-110.6C335.3,661.8,313.7,627.2,273,605.6z M237.6,949.5c-62.2,32-121,70-186.6,91.6
			c-12.1,3.5-24.2,2.6-36.3,0c-63.1-23.3-121-57-179.7-88.1c-13.8-6.9-17.3-21.6-17.3-37.2c0-69.1,0.9-137.4,0.9-206.5
			c-0.9-13,0-25.1,11.2-32.8c57.9-38.9,121-67.4,184.9-95c17.3-7.8,38-3.5,55.3,5.2c55.3,27.6,109.7,57,164.2,85.5
			c14.7,7.8,17.3,20.7,14.7,35.4c0,71.7,0.9,143.4,0.9,215.1C249.7,933.9,248,944.3,237.6,949.5L237.6,949.5z"/>
		<path id="Fill-4" fill="#83B93C" d="M-170.2,672.1c52.7,26.8,105.4,53.6,157.2,80.4c11.2,6,25.9,12.1,18.1,29.4
			c-7.8,18.1-21.6,9.5-32.8,3.5c-51.8-26.8-102.8-53.6-154.7-80.4C-183.1,692.9-181.4,680.8-170.2,672.1"/>
	</g>
</g>
</svg>
